<svg data-v-423bf9ae="" xmlns="http://www.w3.org/2000/svg" viewBox="0 0 339 90" class="iconLeftSlogan"><!----><!----><!----><g data-v-423bf9ae="" id="10c22e39-bd3a-4682-9abd-96df6447d13e" fill="#000000" transform="matrix(3.2485108843818415,0,0,3.2485108843818415,108.8630139668845,-2.306441764135954)"><path d="M5.66 9.49L5.66 9.49Q5.75 9.39 5.96 9.34L5.96 9.34L5.96 9.34Q6.17 9.28 6.38 9.28L6.38 9.28L6.38 9.28Q6.90 9.28 6.90 9.55L6.90 9.55L6.90 9.55Q6.90 9.67 6.76 9.83L6.76 9.83L6.76 9.83Q6.59 10.02 6.45 10.20L6.45 10.20L6.45 10.20Q6.31 10.37 6.20 10.51L6.20 10.51L6.20 10.51Q5.59 11.31 5.10 11.78L5.10 11.78L5.10 11.78Q4.61 12.25 3.95 12.46L3.95 12.46L3.95 12.46Q3.64 12.56 3.29 12.56L3.29 12.56L3.29 12.56Q2.70 12.56 2.29 12.22L2.29 12.22L2.29 12.22Q1.88 11.89 1.81 11.24L1.81 11.24L1.81 11.24Q1.78 11.06 1.78 10.68L1.78 10.68L1.78 10.68Q1.78 9.95 1.95 9.20L1.95 9.20L1.95 9.20Q2.11 8.44 2.44 7.31L2.44 7.31L2.60 6.71L2.07 6.76L2.07 6.76Q1.68 6.79 1.01 6.87L1.01 6.87L1.01 6.87Q0.69 6.92 0.52 6.80L0.52 6.80L0.52 6.80Q0.35 6.69 0.35 6.51L0.35 6.51L0.35 6.51Q0.35 6.30 0.55 6.10L0.55 6.10L0.55 6.10Q0.76 5.89 1.08 5.87L1.08 5.87L2.88 5.66L2.88 5.66Q3.50 3.39 4.27 1.20L4.27 1.20L4.27 1.20Q4.34 1.01 4.66 0.86L4.66 0.86L4.66 0.86Q4.97 0.71 5.26 0.71L5.26 0.71L5.26 0.71Q5.45 0.71 5.57 0.78L5.57 0.78L5.57 0.78Q5.68 0.85 5.68 0.99L5.68 0.99L5.68 0.99Q5.68 1.04 5.66 1.15L5.66 1.15L5.66 1.15Q4.84 3.43 4.30 5.50L4.30 5.50L4.30 5.50Q5.28 5.40 5.60 5.40L5.60 5.40L5.60 5.40Q6.01 5.40 6.01 5.64L6.01 5.64L6.01 5.64Q6.01 5.84 5.77 6.07L5.77 6.07L5.77 6.07Q5.53 6.30 5.28 6.36L5.28 6.36L5.28 6.36Q4.44 6.50 4.02 6.55L4.02 6.55L4.02 6.55Q3.78 7.50 3.60 8.41L3.60 8.41L3.60 8.41Q3.57 8.53 3.40 9.23L3.40 9.23L3.40 9.23Q3.23 9.94 3.23 10.56L3.23 10.56L3.23 10.56Q3.23 11.35 3.65 11.42L3.65 11.42L3.65 11.42Q3.92 11.47 4.26 11.12L4.26 11.12L4.26 11.12Q4.61 10.78 5.15 10.09L5.15 10.09L5.15 10.09Q5.49 9.66 5.66 9.49L5.66 9.49ZM13.05 3.99L13.05 3.99Q13.27 4.06 13.26 4.28L13.26 4.28L13.26 4.28Q12.87 8.04 12.11 12.11L12.11 12.11L12.11 12.11Q12.05 12.38 11.72 12.56L11.72 12.56L11.72 12.56Q11.38 12.74 11.05 12.74L11.05 12.74L11.05 12.74Q10.84 12.74 10.71 12.65L10.71 12.65L10.71 12.65Q10.58 12.56 10.63 12.39L10.63 12.39L10.63 12.39Q10.96 10.93 11.19 9.41L11.19 9.41L11.19 9.41Q11.41 7.88 11.62 5.91L11.62 5.91L11.62 5.91Q10.47 6.97 9.32 8.23L9.32 8.23L8.55 12.49L8.55 12.49Q8.50 12.75 8.15 12.95L8.15 12.95L8.15 12.95Q7.80 13.15 7.45 13.15L7.45 13.15L7.45 13.15Q7.24 13.15 7.13 13.05L7.13 13.05L7.13 13.05Q7.01 12.96 7.04 12.78L7.04 12.78L7.73 8.93L7.73 8.93Q7.56 8.89 7.56 8.74L7.56 8.74L7.56 8.74Q7.56 8.62 7.69 8.46L7.69 8.46L7.85 8.23L9.11 1.39L9.11 1.39Q9.16 1.13 9.51 0.95L9.51 0.95L9.51 0.95Q9.86 0.77 10.19 0.77L10.19 0.77L10.19 0.77Q10.39 0.77 10.50 0.85L10.50 0.85L10.50 0.85Q10.61 0.94 10.58 1.09L10.58 1.09L9.69 6.16L9.69 6.16Q10.72 5.12 12.00 4.19L12.00 4.19L12.00 4.19Q12.40 3.91 12.75 3.91L12.75 3.91L12.75 3.91Q12.92 3.91 13.05 3.99L13.05 3.99L13.05 3.99ZM17.89 5.07L17.89 5.07Q17.18 5.61 16.73 6.83L16.73 6.83L16.73 6.83Q18.10 6.31 19.21 5.96L19.21 5.96L19.21 5.96Q18.75 5.32 18.27 5.10L18.27 5.10L18.27 5.10Q18.17 5.05 18.08 5.04L18.08 5.04L18.08 5.04Q17.99 5.03 17.98 5.03L17.98 5.03L17.98 5.03Q17.99 5.04 17.95 5.05L17.95 5.05L17.95 5.05Q17.92 5.07 17.89 5.07L17.89 5.07ZM17.95 4.07L17.95 4.07Q18.17 4.02 18.42 4.02L18.42 4.02L18.42 4.02Q19.77 4.02 20.86 5.82L20.86 5.82L20.86 5.82Q20.90 5.88 20.90 5.96L20.90 5.96L20.90 5.96Q20.90 6.12 20.71 6.29L20.71 6.29L20.71 6.29Q20.55 6.45 20.31 6.55L20.31 6.55L20.31 6.55Q18.91 7.17 16.42 8.02L16.42 8.02L16.42 8.02Q16.28 8.74 16.28 9.49L16.28 9.49L16.28 9.49Q16.28 9.84 16.30 10.00L16.30 10.00L16.30 10.00Q16.32 10.63 16.55 11.09L16.55 11.09L16.55 11.09Q16.62 11.24 16.75 11.38L16.75 11.38L16.75 11.38Q16.88 11.52 16.95 11.56L16.95 11.56L16.95 11.56Q17.00 11.59 17.09 11.59L17.09 11.59L17.09 11.59Q17.19 11.59 17.32 11.54L17.32 11.54L17.32 11.54Q17.46 11.48 17.63 11.38L17.63 11.38L17.63 11.38Q18.03 11.14 18.38 10.84L18.38 10.84L18.38 10.84Q18.73 10.53 19.22 10.04L19.22 10.04L19.22 10.04Q19.42 9.84 19.88 9.84L19.88 9.84L19.88 9.84Q20.13 9.84 20.31 9.92L20.31 9.92L20.31 9.92Q20.48 10.00 20.48 10.14L20.48 10.14L20.48 10.14Q20.48 10.26 20.34 10.42L20.34 10.42L20.34 10.42Q19.47 11.35 18.56 12.01L18.56 12.01L18.56 12.01Q17.65 12.67 16.74 12.67L16.74 12.67L16.74 12.67Q16.31 12.67 15.93 12.49L15.93 12.49L15.93 12.49Q15.30 12.19 15.02 11.55L15.02 11.55L15.02 11.55Q14.74 10.91 14.74 10.04L14.74 10.04L14.74 10.04Q14.74 9.39 14.91 8.53L14.91 8.53L14.80 8.55L14.69 8.60L14.69 8.60Q14.48 8.67 14.35 8.67L14.35 8.67L14.35 8.67Q14.15 8.67 14.04 8.57L14.04 8.57L14.04 8.57Q13.93 8.47 13.93 8.32L13.93 8.32L13.93 8.32Q13.93 8.13 14.08 7.96L14.08 7.96L14.08 7.96Q14.22 7.78 14.52 7.67L14.52 7.67L15.20 7.41L15.20 7.41Q15.33 7.01 15.58 6.38L15.58 6.38L15.58 6.38Q15.97 5.52 16.56 4.89L16.56 4.89L16.56 4.89Q17.15 4.26 17.95 4.07L17.95 4.07ZM26.29 7.71L26.29 7.71Q26.29 6.23 24.56 5.38L24.56 5.38L24.56 5.38Q24.12 5.74 23.69 6.34L23.69 6.34L23.69 6.34Q23.16 7.11 22.81 8.06L22.81 8.06L22.81 8.06Q22.67 8.44 22.54 9.09L22.54 9.09L22.54 9.09Q22.41 9.74 22.41 10.30L22.41 10.30L22.41 10.30Q22.41 10.88 22.57 11.22L22.57 11.22L22.57 11.22Q22.74 11.56 23.10 11.56L23.10 11.56L23.10 11.56Q23.39 11.56 23.79 11.33L23.79 11.33L23.79 11.33Q24.86 10.70 25.58 9.76L25.58 9.76L25.58 9.76Q26.29 8.82 26.29 7.71L26.29 7.71ZM26.68 5.18L26.68 5.18Q27.19 5.66 27.46 6.26L27.46 6.26L27.46 6.26Q27.73 6.86 27.73 7.53L27.73 7.53L27.73 7.53Q27.73 8.50 27.17 9.49L27.17 9.49L27.17 9.49Q26.80 10.16 26.07 10.91L26.07 10.91L26.07 10.91Q25.34 11.65 24.45 12.16L24.45 12.16L24.45 12.16Q23.56 12.67 22.75 12.67L22.75 12.67L22.75 12.67Q22.25 12.67 21.80 12.45L21.80 12.45L21.80 12.45Q20.85 11.93 20.85 10.58L20.85 10.58L20.85 10.58Q20.85 9.62 21.28 8.46L21.28 8.46L21.28 8.46Q21.71 7.31 22.20 6.51L22.20 6.51L22.20 6.51Q23.39 4.62 24.71 4.13L24.71 4.13L24.71 4.13Q25.07 3.99 25.49 3.99L25.49 3.99L25.49 3.99Q25.98 3.99 26.32 4.23L26.32 4.23L26.32 4.23Q26.66 4.48 26.71 5.00L26.71 5.00L26.71 5.05L26.71 5.05Q26.71 5.10 26.68 5.18L26.68 5.18ZM36.50 3.96L36.50 3.96Q36.75 3.75 37.16 3.75L37.16 3.75L37.16 3.75Q37.38 3.75 37.53 3.84L37.53 3.84L37.53 3.84Q37.69 3.92 37.69 4.06L37.69 4.06L37.69 4.06Q37.69 4.21 37.45 4.44L37.45 4.44L37.45 4.44Q35.36 6.27 33.00 8.72L33.00 8.72L33.00 8.72Q34.29 10.43 35.56 11.84L35.56 11.84L35.56 11.84Q35.66 11.94 35.66 12.07L35.66 12.07L35.66 12.07Q35.66 12.33 35.28 12.56L35.28 12.56L35.28 12.56Q34.90 12.80 34.52 12.80L34.52 12.80L34.52 12.80Q34.26 12.80 34.12 12.64L34.12 12.64L34.12 12.64Q32.61 10.86 31.88 9.90L31.88 9.90L30.59 11.30L29.55 12.43L29.55 12.43Q29.43 12.57 29.14 12.67L29.14 12.67L29.14 12.67Q28.85 12.77 28.60 12.77L28.60 12.77L28.60 12.77Q28.42 12.77 28.31 12.71L28.31 12.71L28.31 12.71Q28.20 12.66 28.20 12.54L28.20 12.54L28.20 12.54Q28.20 12.43 28.32 12.25L28.32 12.25L28.32 12.25Q29.53 10.65 31.15 8.92L31.15 8.92L31.15 8.92Q29.82 7.04 28.48 4.87L28.48 4.87L28.48 4.87Q28.41 4.76 28.41 4.65L28.41 4.65L28.41 4.65Q28.41 4.37 28.73 4.16L28.73 4.16L28.73 4.16Q29.06 3.95 29.43 3.95L29.43 3.95L29.43 3.95Q29.82 3.95 29.96 4.20L29.96 4.20L29.96 4.20Q31.05 6.06 32.27 7.76L32.27 7.76L32.27 7.76Q33.98 6.06 36.50 3.96L36.50 3.96ZM41.92 7.71L41.92 7.71Q41.92 6.23 40.18 5.38L40.18 5.38L40.18 5.38Q39.75 5.74 39.31 6.34L39.31 6.34L39.31 6.34Q38.78 7.11 38.43 8.06L38.43 8.06L38.43 8.06Q38.29 8.44 38.16 9.09L38.16 9.09L38.16 9.09Q38.04 9.74 38.04 10.30L38.04 10.30L38.04 10.30Q38.04 10.88 38.20 11.22L38.20 11.22L38.20 11.22Q38.36 11.56 38.72 11.56L38.72 11.56L38.72 11.56Q39.02 11.56 39.41 11.33L39.41 11.33L39.41 11.33Q40.49 10.70 41.20 9.76L41.20 9.76L41.20 9.76Q41.92 8.82 41.92 7.71L41.92 7.71ZM42.31 5.18L42.31 5.18Q42.81 5.66 43.09 6.26L43.09 6.26L43.09 6.26Q43.36 6.86 43.36 7.53L43.36 7.53L43.36 7.53Q43.36 8.50 42.80 9.49L42.80 9.49L42.80 9.49Q42.42 10.16 41.69 10.91L41.69 10.91L41.69 10.91Q40.96 11.65 40.07 12.16L40.07 12.16L40.07 12.16Q39.19 12.67 38.37 12.67L38.37 12.67L38.37 12.67Q37.87 12.67 37.42 12.45L37.42 12.45L37.42 12.45Q36.47 11.93 36.47 10.58L36.47 10.58L36.47 10.58Q36.47 9.62 36.90 8.46L36.90 8.46L36.90 8.46Q37.34 7.31 37.83 6.51L37.83 6.51L37.83 6.51Q39.02 4.62 40.33 4.13L40.33 4.13L40.33 4.13Q40.70 3.99 41.12 3.99L41.12 3.99L41.12 3.99Q41.61 3.99 41.94 4.23L41.94 4.23L41.94 4.23Q42.28 4.48 42.34 5.00L42.34 5.00L42.34 5.05L42.34 5.05Q42.34 5.10 42.31 5.18L42.31 5.18ZM43.75 12.66L43.75 12.66Q43.68 12.59 43.68 12.47L43.68 12.47L43.68 12.47Q43.68 12.38 43.78 12.25L43.78 12.25L43.78 12.25Q43.82 12.11 43.90 11.98L43.90 11.98L43.90 11.98Q44.02 11.82 44.34 11.69L44.34 11.69L44.34 11.69Q44.55 11.63 44.70 11.62L44.70 11.62L44.70 11.62Q44.88 11.62 45.02 11.70L45.02 11.70L45.02 11.70Q45.16 11.79 45.18 11.96L45.18 11.96L45.18 12.22L45.25 12.31L45.25 12.31Q45.32 12.39 45.32 12.50L45.32 12.50L45.32 12.50Q45.32 12.71 45.02 12.92L45.02 12.92L45.02 12.92Q44.73 13.12 44.42 13.12L44.42 13.12L44.42 13.12Q44.25 13.12 44.13 13.06L44.13 13.06L44.13 13.06Q43.99 13.02 43.88 12.91L43.88 12.91L43.88 12.91Q43.78 12.80 43.75 12.66L43.75 12.66L43.75 12.66ZM54.74 3.96L54.74 3.96Q54.99 3.75 55.40 3.75L55.40 3.75L55.40 3.75Q55.62 3.75 55.78 3.84L55.78 3.84L55.78 3.84Q55.93 3.92 55.93 4.06L55.93 4.06L55.93 4.06Q55.93 4.21 55.69 4.44L55.69 4.44L55.69 4.44Q53.61 6.27 51.24 8.72L51.24 8.72L51.24 8.72Q52.53 10.43 53.80 11.84L53.80 11.84L53.80 11.84Q53.90 11.94 53.90 12.07L53.90 12.07L53.90 12.07Q53.90 12.33 53.52 12.56L53.52 12.56L53.52 12.56Q53.14 12.80 52.77 12.80L52.77 12.80L52.77 12.80Q52.50 12.80 52.36 12.64L52.36 12.64L52.36 12.64Q50.85 10.86 50.12 9.90L50.12 9.90L48.83 11.30L47.80 12.43L47.80 12.43Q47.67 12.57 47.38 12.67L47.38 12.67L47.38 12.67Q47.10 12.77 46.84 12.77L46.84 12.77L46.84 12.77Q46.66 12.77 46.55 12.71L46.55 12.71L46.55 12.71Q46.44 12.66 46.44 12.54L46.44 12.54L46.44 12.54Q46.44 12.43 46.56 12.25L46.56 12.25L46.56 12.25Q47.77 10.65 49.39 8.92L49.39 8.92L49.39 8.92Q48.06 7.04 46.72 4.87L46.72 4.87L46.72 4.87Q46.65 4.76 46.65 4.65L46.65 4.65L46.65 4.65Q46.65 4.37 46.98 4.16L46.98 4.16L46.98 4.16Q47.31 3.95 47.67 3.95L47.67 3.95L47.67 3.95Q48.06 3.95 48.20 4.20L48.20 4.20L48.20 4.20Q49.29 6.06 50.51 7.76L50.51 7.76L50.51 7.76Q52.22 6.06 54.74 3.96L54.74 3.96ZM57.13 18.21L57.13 18.21Q57.08 18.24 57.09 18.28L57.09 18.28L57.09 18.28Q57.09 18.26 57.13 18.21L57.13 18.21ZM60.59 4.34L60.59 4.34Q60.59 4.07 60.91 3.88L60.91 3.88L60.91 3.88Q61.24 3.68 61.59 3.68L61.59 3.68L61.59 3.68Q61.80 3.68 61.93 3.77L61.93 3.77L61.93 3.77Q62.06 3.86 62.06 4.06L62.06 4.06L62.06 4.06Q62.08 4.77 61.97 5.45L61.97 5.45L61.97 5.45Q61.87 6.13 61.63 7.34L61.63 7.34L61.63 7.34Q61.52 7.84 61.47 8.08L61.47 8.08L61.47 8.08Q60.98 10.71 60.27 13.48L60.27 13.48L60.27 13.48Q59.89 14.98 59.59 15.94L59.59 15.94L59.59 15.94Q59.29 16.90 58.84 17.78L58.84 17.78L58.84 17.78Q58.56 18.33 58.11 18.75L58.11 18.75L58.11 18.75Q57.67 19.18 57.18 19.18L57.18 19.18L57.18 19.18Q56.84 19.18 56.52 18.94L56.52 18.94L56.52 18.94Q55.72 18.33 55.72 16.27L55.72 16.27L55.72 16.27Q55.72 15.71 55.79 14.66L55.79 14.66L55.79 14.66Q55.80 14.39 56.14 14.20L56.14 14.20L56.14 14.20Q56.48 14 56.83 14L56.83 14L56.83 14Q57.30 14 57.29 14.36L57.29 14.36L57.29 14.36Q57.26 15.01 57.26 15.34L57.26 15.34L57.26 15.34Q57.26 16.11 57.34 16.84L57.34 16.84L57.34 16.84Q57.36 16.93 57.39 17.12L57.39 17.12L57.39 17.12Q57.43 17.32 57.48 17.47L57.48 17.47L57.48 17.47Q57.54 17.32 57.64 17.15L57.64 17.15L57.64 17.15Q57.93 16.51 58.02 16.24L58.02 16.24L58.02 16.24Q58.31 15.39 58.74 13.76L58.74 13.76L58.74 13.76Q59.14 12.26 59.40 11.07L59.40 11.07L59.40 11.07Q58.63 12.01 57.74 12.24L57.74 12.24L57.74 12.24Q57.30 12.33 57.06 12.33L57.06 12.33L57.06 12.33Q55.50 12.33 55.50 9.97L55.50 9.97L55.50 9.97Q55.50 8.18 56.42 5.10L56.42 5.10L56.42 5.10Q56.49 4.84 56.81 4.64L56.81 4.64L56.81 4.64Q57.13 4.44 57.43 4.44L57.43 4.44L57.43 4.44Q57.82 4.44 57.89 4.80L57.89 4.80L57.89 4.80Q57.92 4.96 57.79 5.28L57.79 5.28L57.79 5.28Q57.67 5.60 57.64 5.70L57.64 5.70L57.64 5.70Q57.41 6.54 57.33 6.96L57.33 6.96L57.26 7.25L57.26 7.25Q57.09 7.97 56.98 8.55L56.98 8.55L56.98 8.55Q56.87 9.14 56.87 9.69L56.87 9.69L56.87 9.69Q56.87 10.68 57.30 11.07L57.30 11.07L57.30 11.07Q57.41 11.19 57.57 11.19L57.57 11.19L57.57 11.19Q58.02 11.19 58.48 10.38L58.48 10.38L58.48 10.38Q58.94 9.58 59.42 8.51L59.42 8.51L59.42 8.51Q59.89 7.42 60.17 6.66L60.17 6.66L60.17 6.66Q60.44 5.89 60.54 5.12L60.54 5.12L60.54 5.12Q60.56 4.84 60.59 4.34L60.59 4.34ZM70.31 10.78L70.31 10.78Q70.53 10.77 70.64 10.84L70.64 10.84L70.64 10.84Q70.76 10.91 70.76 11.05L70.76 11.05L70.76 11.05Q70.76 11.26 70.54 11.49L70.54 11.49L70.54 11.49Q70.32 11.72 70.07 11.76L70.07 11.76L70.07 11.76Q69.33 11.86 67.84 12.03L67.84 12.03L67.84 12.03Q64.92 12.36 63.42 12.60L63.42 12.60L63.42 12.60Q63.18 12.63 62.96 12.52L62.96 12.52L62.96 12.52Q62.73 12.42 62.73 12.24L62.73 12.24L62.73 12.24Q62.73 12.10 62.85 11.97L62.85 11.97L62.85 11.97Q63.99 10.44 65.93 8.11L65.93 8.11L64.83 8.18L64.83 8.18Q64.62 8.19 64.49 8.09L64.49 8.09L64.49 8.09Q64.36 7.99 64.36 7.83L64.36 7.83L64.36 7.83Q64.36 7.53 64.65 7.38L64.65 7.38L64.65 7.38Q64.95 7.24 65.27 7.21L65.27 7.21L65.27 7.21Q65.79 7.15 66.79 7.07L66.79 7.07L68.78 4.73L68.78 4.73Q68.50 4.72 67.94 4.72L67.94 4.72L67.94 4.72Q65.97 4.72 63.84 5.04L63.84 5.04L63.84 5.04Q63.76 5.05 63.63 5.05L63.63 5.05L63.63 5.05Q63.24 5.05 63.24 4.79L63.24 4.79L63.24 4.79Q63.24 4.61 63.44 4.40L63.44 4.40L63.44 4.40Q63.64 4.20 63.94 4.14L63.94 4.14L63.94 4.14Q65.93 3.71 68.22 3.71L68.22 3.71L68.22 3.71Q69.06 3.71 70.08 3.78L70.08 3.78L70.08 3.78Q70.27 3.79 70.43 3.90L70.43 3.90L70.43 3.90Q70.59 4.00 70.59 4.16L70.59 4.16L70.59 4.16Q70.59 4.26 70.46 4.41L70.46 4.41L70.46 4.41Q69.33 5.67 68.24 6.97L68.24 6.97L68.24 6.97Q69.22 6.90 69.45 6.90L69.45 6.90L69.45 6.90Q69.64 6.90 69.75 6.99L69.75 6.99L69.75 6.99Q69.87 7.08 69.87 7.25L69.87 7.25L69.87 7.25Q69.87 7.55 69.59 7.70L69.59 7.70L69.59 7.70Q69.30 7.85 68.98 7.88L68.98 7.88L67.37 8.01L67.37 8.01Q65.98 9.69 64.68 11.41L64.68 11.41L64.68 11.41Q67.45 10.99 70.31 10.78L70.31 10.78Z"></path></g><defs data-v-423bf9ae=""><linearGradient data-v-423bf9ae="" gradientTransform="rotate(25)" id="e19fa2a8-8ac4-42ab-a9a1-f9267f3a2493" x1="0%" y1="0%" x2="100%" y2="0%"><stop data-v-423bf9ae="" offset="0%" style="stop-color: rgb(233, 13, 218); stop-opacity: 1;"></stop><stop data-v-423bf9ae="" offset="100%" style="stop-color: rgb(21, 207, 241); stop-opacity: 1;"></stop></linearGradient></defs><g data-v-423bf9ae="" id="5f63cef2-2276-451f-98d9-46c228eac7b0" transform="matrix(2.8125,0,0,2.8125,0,0)" stroke="none" fill="url(#e19fa2a8-8ac4-42ab-a9a1-f9267f3a2493)"><path d="M19.25 8.639L15 16l4.25 7.361h8.5L32 16l-4.25-7.361h-8.5zm8.211 14.222h-7.923L15.577 16l3.961-6.861h7.923L31.423 16l-3.962 6.861zM12.75 14.722L17 7.361 12.75 0h-8.5L0 7.361l4.25 7.361h8.5zM4.539.5h7.923l3.961 6.861-3.961 6.861H4.539L.577 7.361 4.539.5zM12.75 32L17 24.639l-4.25-7.361h-8.5L0 24.639 4.25 32h8.5zM4.539 17.778h7.923l3.961 6.861-3.962 6.861H4.539L.578 24.639l3.961-6.861z"></path></g><!----><g data-v-423bf9ae="" id="cff1cd77-f13c-4b0a-bcec-891d5b55c222" fill="#000000" transform="matrix(0.9455463340883233,0,0,0.9455463340883233,109.2057377866111,54.62929644914216)"><path d="M0.84 6.97L0.84 5.88L7.73 5.88L7.73 6.97L4.87 6.97L4.87 15.68L3.70 15.68L3.70 6.97L0.84 6.97ZM16.59 15.68L16.59 5.88L17.77 5.88L17.77 10.22L21.94 10.22L21.94 5.88L23.11 5.88L23.11 15.68L21.94 15.68L21.94 11.31L17.77 11.31L17.77 15.68L16.59 15.68ZM32.45 15.68L32.45 5.88L38.39 5.88L38.39 6.97L33.63 6.97L33.63 10.22L38.30 10.22L38.30 11.31L33.63 11.31L33.63 14.59L38.47 14.59L38.47 15.68L32.45 15.68ZM47.54 11.87L47.54 9.69L47.54 9.69Q47.54 7.78 48.45 6.73L48.45 6.73L48.45 6.73Q49.36 5.68 50.99 5.68L50.99 5.68L50.99 5.68Q52.61 5.68 53.52 6.73L53.52 6.73L53.52 6.73Q54.43 7.78 54.43 9.69L54.43 9.69L54.43 11.87L54.43 11.87Q54.43 13.83 53.52 14.85L53.52 14.85L53.52 14.85Q52.61 15.88 50.99 15.88L50.99 15.88L50.99 15.88Q49.36 15.88 48.45 14.85L48.45 14.85L48.45 14.85Q47.54 13.83 47.54 11.87L47.54 11.87ZM50.99 14.78L50.99 14.78L50.99 14.78Q52.12 14.78 52.69 14.01L52.69 14.01L52.69 14.01Q53.26 13.23 53.26 11.79L53.26 11.79L53.26 9.77L53.26 9.77Q53.26 8.43 52.69 7.60L52.69 7.60L52.69 7.60Q52.12 6.78 50.99 6.78L50.99 6.78L50.99 6.78Q49.85 6.78 49.29 7.60L49.29 7.60L49.29 7.60Q48.72 8.43 48.72 9.77L48.72 9.77L48.72 11.79L48.72 11.79Q48.72 13.23 49.29 14.01L49.29 14.01L49.29 14.01Q49.85 14.78 50.99 14.78ZM78.68 11.87L78.68 9.69L78.68 9.69Q78.68 7.78 79.59 6.73L79.59 6.73L79.59 6.73Q80.50 5.68 82.12 5.68L82.12 5.68L82.12 5.68Q83.75 5.68 84.66 6.73L84.66 6.73L84.66 6.73Q85.57 7.78 85.57 9.69L85.57 9.69L85.57 11.87L85.57 11.87Q85.57 13.83 84.66 14.85L84.66 14.85L84.66 14.85Q83.75 15.88 82.12 15.88L82.12 15.88L82.12 15.88Q80.50 15.88 79.59 14.85L79.59 14.85L79.59 14.85Q78.68 13.83 78.68 11.87L78.68 11.87ZM82.12 14.78L82.12 14.78L82.12 14.78Q83.26 14.78 83.83 14.01L83.83 14.01L83.83 14.01Q84.39 13.23 84.39 11.79L84.39 11.79L84.39 9.77L84.39 9.77Q84.39 8.43 83.83 7.60L83.83 7.60L83.83 7.60Q83.26 6.78 82.12 6.78L82.12 6.78L82.12 6.78Q80.99 6.78 80.42 7.60L80.42 7.60L80.42 7.60Q79.86 8.43 79.86 9.77L79.86 9.77L79.86 11.79L79.86 11.79Q79.86 13.23 80.42 14.01L80.42 14.01L80.42 14.01Q80.99 14.78 82.12 14.78ZM94.63 15.68L94.63 5.88L95.80 5.88L95.80 14.59L100.93 14.59L100.93 15.68L94.63 15.68ZM116.07 15.68L115.36 13.24L111.16 13.24L110.45 15.68L109.19 15.68L112.15 5.88L114.37 5.88L117.33 15.68L116.07 15.68ZM113.34 6.38L113.18 6.38L111.48 12.15L115.04 12.15L113.34 6.38ZM125.47 5.88L126.64 5.88L126.64 12.38L126.64 12.38Q126.64 13.57 127.20 14.17L127.20 14.17L127.20 14.17Q127.75 14.78 128.83 14.78L128.83 14.78L128.83 14.78Q129.91 14.78 130.46 14.17L130.46 14.17L130.46 14.17Q131.01 13.57 131.01 12.38L131.01 12.38L131.01 5.88L132.19 5.88L132.19 12.38L132.19 12.38Q132.19 14.08 131.29 14.98L131.29 14.98L131.29 14.98Q130.40 15.88 128.83 15.88L128.83 15.88L128.83 15.88Q127.26 15.88 126.36 14.98L126.36 14.98L126.36 14.98Q125.47 14.08 125.47 12.38L125.47 12.38L125.47 5.88ZM146.71 9.21L146.71 8.71L146.71 8.71Q146.71 8.23 146.52 7.87L146.52 7.87L146.52 7.87Q146.33 7.50 146.01 7.27L146.01 7.27L146.01 7.27Q145.68 7.03 145.26 6.90L145.26 6.90L145.26 6.90Q144.84 6.78 144.38 6.78L144.38 6.78L144.38 6.78Q143.98 6.78 143.61 6.88L143.61 6.88L143.61 6.88Q143.25 6.99 142.96 7.18L142.96 7.18L142.96 7.18Q142.67 7.38 142.51 7.66L142.51 7.66L142.51 7.66Q142.34 7.95 142.34 8.33L142.34 8.33L142.34 8.41L142.34 8.41Q142.34 8.82 142.51 9.11L142.51 9.11L142.51 9.11Q142.67 9.39 143.00 9.60L143.00 9.60L143.00 9.60Q143.33 9.80 143.82 9.93L143.82 9.93L143.82 9.93Q144.31 10.07 144.97 10.16L144.97 10.16L144.97 10.16Q146.51 10.40 147.24 11.07L147.24 11.07L147.24 11.07Q147.97 11.73 147.97 12.85L147.97 12.85L147.97 13.02L147.97 13.02Q147.97 13.65 147.75 14.17L147.75 14.17L147.75 14.17Q147.53 14.70 147.10 15.08L147.10 15.08L147.10 15.08Q146.68 15.46 146.05 15.67L146.05 15.67L146.05 15.67Q145.42 15.88 144.59 15.88L144.59 15.88L144.59 15.88Q143.65 15.88 142.93 15.60L142.93 15.60L142.93 15.60Q142.21 15.33 141.73 14.85L141.73 14.85L141.73 14.85Q141.25 14.36 140.99 13.71L140.99 13.71L140.99 13.71Q140.74 13.06 140.74 12.29L140.74 12.29L140.74 11.87L141.92 11.87L141.92 12.21L141.92 12.21Q141.92 13.50 142.63 14.14L142.63 14.14L142.63 14.14Q143.33 14.78 144.59 14.78L144.59 14.78L144.59 14.78Q145.68 14.78 146.24 14.30L146.24 14.30L146.24 14.30Q146.79 13.82 146.79 13.02L146.79 13.02L146.79 12.94L146.79 12.94Q146.79 12.17 146.22 11.76L146.22 11.76L146.22 11.76Q145.66 11.35 144.38 11.17L144.38 11.17L144.38 11.17Q143.64 11.07 143.04 10.87L143.04 10.87L143.04 10.87Q142.45 10.67 142.03 10.34L142.03 10.34L142.03 10.34Q141.61 10.01 141.39 9.55L141.39 9.55L141.39 9.55Q141.16 9.09 141.16 8.46L141.16 8.46L141.16 8.29L141.16 8.29Q141.16 7.71 141.40 7.24L141.40 7.24L141.40 7.24Q141.64 6.76 142.06 6.41L142.06 6.41L142.06 6.41Q142.49 6.06 143.09 5.87L143.09 5.87L143.09 5.87Q143.68 5.68 144.40 5.68L144.40 5.68L144.40 5.68Q145.22 5.68 145.87 5.92L145.87 5.92L145.87 5.92Q146.52 6.16 146.97 6.56L146.97 6.56L146.97 6.56Q147.42 6.96 147.65 7.50L147.65 7.50L147.65 7.50Q147.88 8.04 147.88 8.62L147.88 8.62L147.88 9.21L146.71 9.21ZM162.27 9.21L162.27 8.71L162.27 8.71Q162.27 8.23 162.09 7.87L162.09 7.87L162.09 7.87Q161.90 7.50 161.57 7.27L161.57 7.27L161.57 7.27Q161.25 7.03 160.83 6.90L160.83 6.90L160.83 6.90Q160.41 6.78 159.95 6.78L159.95 6.78L159.95 6.78Q159.54 6.78 159.18 6.88L159.18 6.88L159.18 6.88Q158.82 6.99 158.53 7.18L158.53 7.18L158.53 7.18Q158.24 7.38 158.07 7.66L158.07 7.66L158.07 7.66Q157.91 7.95 157.91 8.33L157.91 8.33L157.91 8.41L157.91 8.41Q157.91 8.82 158.07 9.11L158.07 9.11L158.07 9.11Q158.24 9.39 158.57 9.60L158.57 9.60L158.57 9.60Q158.90 9.80 159.39 9.93L159.39 9.93L159.39 9.93Q159.88 10.07 160.54 10.16L160.54 10.16L160.54 10.16Q162.08 10.40 162.81 11.07L162.81 11.07L162.81 11.07Q163.53 11.73 163.53 12.85L163.53 12.85L163.53 13.02L163.53 13.02Q163.53 13.65 163.32 14.17L163.32 14.17L163.32 14.17Q163.10 14.70 162.67 15.08L162.67 15.08L162.67 15.08Q162.25 15.46 161.62 15.67L161.62 15.67L161.62 15.67Q160.99 15.88 160.16 15.88L160.16 15.88L160.16 15.88Q159.22 15.88 158.50 15.60L158.50 15.60L158.50 15.60Q157.78 15.33 157.30 14.85L157.30 14.85L157.30 14.85Q156.81 14.36 156.56 13.71L156.56 13.71L156.56 13.71Q156.31 13.06 156.31 12.29L156.31 12.29L156.31 11.87L157.49 11.87L157.49 12.21L157.49 12.21Q157.49 13.50 158.19 14.14L158.19 14.14L158.19 14.14Q158.90 14.78 160.16 14.78L160.16 14.78L160.16 14.78Q161.25 14.78 161.81 14.30L161.81 14.30L161.81 14.30Q162.36 13.82 162.36 13.02L162.36 13.02L162.36 12.94L162.36 12.94Q162.36 12.17 161.79 11.76L161.79 11.76L161.79 11.76Q161.22 11.35 159.95 11.17L159.95 11.17L159.95 11.17Q159.21 11.07 158.61 10.87L158.61 10.87L158.61 10.87Q158.02 10.67 157.60 10.34L157.60 10.34L157.60 10.34Q157.18 10.01 156.95 9.55L156.95 9.55L156.95 9.55Q156.73 9.09 156.73 8.46L156.73 8.46L156.73 8.29L156.73 8.29Q156.73 7.71 156.97 7.24L156.97 7.24L156.97 7.24Q157.21 6.76 157.63 6.41L157.63 6.41L157.63 6.41Q158.06 6.06 158.66 5.87L158.66 5.87L158.66 5.87Q159.25 5.68 159.96 5.68L159.96 5.68L159.96 5.68Q160.79 5.68 161.44 5.92L161.44 5.92L161.44 5.92Q162.09 6.16 162.54 6.56L162.54 6.56L162.54 6.56Q162.99 6.96 163.22 7.50L163.22 7.50L163.22 7.50Q163.45 8.04 163.45 8.62L163.45 8.62L163.45 9.21L162.27 9.21ZM172.09 11.87L172.09 9.69L172.09 9.69Q172.09 7.78 173.00 6.73L173.00 6.73L173.00 6.73Q173.91 5.68 175.53 5.68L175.53 5.68L175.53 5.68Q177.16 5.68 178.07 6.73L178.07 6.73L178.07 6.73Q178.98 7.78 178.98 9.69L178.98 9.69L178.98 11.87L178.98 11.87Q178.98 13.83 178.07 14.85L178.07 14.85L178.07 14.85Q177.16 15.88 175.53 15.88L175.53 15.88L175.53 15.88Q173.91 15.88 173.00 14.85L173.00 14.85L173.00 14.85Q172.09 13.83 172.09 11.87L172.09 11.87ZM175.53 14.78L175.53 14.78L175.53 14.78Q176.67 14.78 177.23 14.01L177.23 14.01L177.23 14.01Q177.80 13.23 177.80 11.79L177.80 11.79L177.80 9.77L177.80 9.77Q177.80 8.43 177.23 7.60L177.23 7.60L177.23 7.60Q176.67 6.78 175.53 6.78L175.53 6.78L175.53 6.78Q174.40 6.78 173.83 7.60L173.83 7.60L173.83 7.60Q173.26 8.43 173.26 9.77L173.26 9.77L173.26 11.79L173.26 11.79Q173.26 13.23 173.83 14.01L173.83 14.01L173.83 14.01Q174.40 14.78 175.53 14.78ZM190.19 5.88L193.02 15.18L193.19 15.18L193.19 5.88L194.36 5.88L194.36 15.68L192.01 15.68L189.18 6.38L189.01 6.38L189.01 15.68L187.84 15.68L187.84 5.88L190.19 5.88Z"></path></g></svg>